<svg id="visual" viewBox="0 0 900 320" width="900" height="320" xmlns="http://www.w3.org/2000/svg" xmlns:xlink="http://www.w3.org/1999/xlink" version="1.1"><g><g transform="translate(866 182)"><path d="M0 -41.7L32.6 -26L40.7 9.3L18.1 37.6L-18.1 37.6L-40.7 9.3L-32.6 -26Z" fill="#d51a1d"></path></g><g transform="translate(75 275)"><path d="M0 -33L25.8 -20.6L32.2 7.3L14.3 29.7L-14.3 29.7L-32.2 7.3L-25.8 -20.6Z" fill="#d51a1d"></path></g><g transform="translate(735 46)"><path d="M0 -34L26.6 -21.2L33.1 7.6L14.8 30.6L-14.8 30.6L-33.1 7.6L-26.6 -21.2Z" fill="#d51a1d"></path></g><g transform="translate(436 214)"><path d="M0 -26L20.3 -16.2L25.3 5.8L11.3 23.4L-11.3 23.4L-25.3 5.8L-20.3 -16.2Z" fill="#d51a1d"></path></g><g transform="translate(173 64)"><path d="M0 -21L16.4 -13.1L20.5 4.7L9.1 18.9L-9.1 18.9L-20.5 4.7L-16.4 -13.1Z" fill="#d51a1d"></path></g><g transform="translate(523 78)"><path d="M0 -22L17.2 -13.7L21.4 4.9L9.5 19.8L-9.5 19.8L-21.4 4.9L-17.2 -13.7Z" fill="#d51a1d"></path></g><g transform="translate(696 312)"><path d="M0 -32L25 -20L31.2 7.1L13.9 28.8L-13.9 28.8L-31.2 7.1L-25 -20Z" fill="#d51a1d"></path></g><g transform="translate(510 269)"><path d="M0 -23L18 -14.3L22.4 5.1L10 20.7L-10 20.7L-22.4 5.1L-18 -14.3Z" fill="#d51a1d"></path></g><g transform="translate(372 106)"><path d="M0 -30L23.5 -18.7L29.2 6.7L13 27L-13 27L-29.2 6.7L-23.5 -18.7Z" fill="#d51a1d"></path></g><g transform="translate(191 178)"><path d="M0 -33L25.8 -20.6L32.2 7.3L14.3 29.7L-14.3 29.7L-32.2 7.3L-25.8 -20.6Z" fill="#d51a1d"></path></g><g transform="translate(740 154)"><path d="M0 -24L18.8 -15L23.4 5.3L10.4 21.6L-10.4 21.6L-23.4 5.3L-18.8 -15Z" fill="#d51a1d"></path></g></g></svg>