<svg id="visual" viewBox="0 0 900 320" width="900" height="320" xmlns="http://www.w3.org/2000/svg" xmlns:xlink="http://www.w3.org/1999/xlink" version="1.1"><path d="M0 186L9.3 198.3C18.7 210.7 37.3 235.3 56.2 239.5C75 243.7 94 227.3 112.8 217.3C131.7 207.3 150.3 203.7 169 208.5C187.7 213.3 206.3 226.7 225 230C243.7 233.3 262.3 226.7 281.2 219.2C300 211.7 319 203.3 337.8 198C356.7 192.7 375.3 190.3 394 196.8C412.7 203.3 431.3 218.7 450 222.2C468.7 225.7 487.3 217.3 506.2 209.3C525 201.3 544 193.7 562.8 201.8C581.7 210 600.3 234 619 236.5C637.7 239 656.3 220 675 216.5C693.7 213 712.3 225 731.2 229.7C750 234.3 769 231.7 787.8 231C806.7 230.3 825.3 231.7 844 230C862.7 228.3 881.3 223.7 890.7 221.3L900 219L900 321L890.7 321C881.3 321 862.7 321 844 321C825.3 321 806.7 321 787.8 321C769 321 750 321 731.2 321C712.3 321 693.7 321 675 321C656.3 321 637.7 321 619 321C600.3 321 581.7 321 562.8 321C544 321 525 321 506.2 321C487.3 321 468.7 321 450 321C431.3 321 412.7 321 394 321C375.3 321 356.7 321 337.8 321C319 321 300 321 281.2 321C262.3 321 243.7 321 225 321C206.3 321 187.7 321 169 321C150.3 321 131.7 321 112.8 321C94 321 75 321 56.2 321C37.3 321 18.7 321 9.3 321L0 321Z" fill="#d51a1d"></path><path d="M0 203L9.3 209.3C18.7 215.7 37.3 228.3 56.2 232.7C75 237 94 233 112.8 232C131.7 231 150.3 233 169 227.5C187.7 222 206.3 209 225 208.8C243.7 208.7 262.3 221.3 281.2 228C300 234.7 319 235.3 337.8 232C356.7 228.7 375.3 221.3 394 216.3C412.7 211.3 431.3 208.7 450 205.3C468.7 202 487.3 198 506.2 198C525 198 544 202 562.8 210.8C581.7 219.7 600.3 233.3 619 235C637.7 236.7 656.3 226.3 675 220.3C693.7 214.3 712.3 212.7 731.2 219.8C750 227 769 243 787.8 242.7C806.7 242.3 825.3 225.7 844 226.7C862.7 227.7 881.3 246.3 890.7 255.7L900 265L900 321L890.7 321C881.3 321 862.7 321 844 321C825.3 321 806.7 321 787.8 321C769 321 750 321 731.2 321C712.3 321 693.7 321 675 321C656.3 321 637.7 321 619 321C600.3 321 581.7 321 562.8 321C544 321 525 321 506.2 321C487.3 321 468.7 321 450 321C431.3 321 412.7 321 394 321C375.3 321 356.7 321 337.8 321C319 321 300 321 281.2 321C262.3 321 243.7 321 225 321C206.3 321 187.7 321 169 321C150.3 321 131.7 321 112.8 321C94 321 75 321 56.2 321C37.3 321 18.7 321 9.3 321L0 321Z" fill="#de054c"></path><path d="M0 255L9.3 247.5C18.7 240 37.3 225 56.2 227C75 229 94 248 112.8 255.3C131.7 262.7 150.3 258.3 169 257C187.7 255.7 206.3 257.3 225 258C243.7 258.7 262.3 258.3 281.2 260.2C300 262 319 266 337.8 266.2C356.7 266.3 375.3 262.7 394 261C412.7 259.3 431.3 259.7 450 257.7C468.7 255.7 487.3 251.3 506.2 245.3C525 239.3 544 231.7 562.8 231.8C581.7 232 600.3 240 619 245.3C637.7 250.7 656.3 253.3 675 253.8C693.7 254.3 712.3 252.7 731.2 250.3C750 248 769 245 787.8 237.7C806.7 230.3 825.3 218.7 844 216.2C862.7 213.7 881.3 220.3 890.7 223.7L900 227L900 321L890.7 321C881.3 321 862.7 321 844 321C825.3 321 806.7 321 787.8 321C769 321 750 321 731.2 321C712.3 321 693.7 321 675 321C656.3 321 637.7 321 619 321C600.3 321 581.7 321 562.8 321C544 321 525 321 506.2 321C487.3 321 468.7 321 450 321C431.3 321 412.7 321 394 321C375.3 321 356.7 321 337.8 321C319 321 300 321 281.2 321C262.3 321 243.7 321 225 321C206.3 321 187.7 321 169 321C150.3 321 131.7 321 112.8 321C94 321 75 321 56.2 321C37.3 321 18.7 321 9.3 321L0 321Z" fill="#db2276"></path><path d="M0 246L9.3 247.5C18.7 249 37.3 252 56.2 252C75 252 94 249 112.8 247.2C131.7 245.3 150.3 244.7 169 246.2C187.7 247.7 206.3 251.3 225 249.8C243.7 248.3 262.3 241.7 281.2 245.7C300 249.7 319 264.3 337.8 264C356.7 263.7 375.3 248.3 394 248.2C412.7 248 431.3 263 450 261.8C468.7 260.7 487.3 243.3 506.2 238C525 232.7 544 239.3 562.8 247.3C581.7 255.3 600.3 264.7 619 266.3C637.7 268 656.3 262 675 263.3C693.7 264.7 712.3 273.3 731.2 268.2C750 263 769 244 787.8 238.7C806.7 233.3 825.3 241.7 844 243.5C862.7 245.3 881.3 240.7 890.7 238.3L900 236L900 321L890.7 321C881.3 321 862.7 321 844 321C825.3 321 806.7 321 787.8 321C769 321 750 321 731.2 321C712.3 321 693.7 321 675 321C656.3 321 637.7 321 619 321C600.3 321 581.7 321 562.8 321C544 321 525 321 506.2 321C487.3 321 468.7 321 450 321C431.3 321 412.7 321 394 321C375.3 321 356.7 321 337.8 321C319 321 300 321 281.2 321C262.3 321 243.7 321 225 321C206.3 321 187.7 321 169 321C150.3 321 131.7 321 112.8 321C94 321 75 321 56.2 321C37.3 321 18.7 321 9.3 321L0 321Z" fill="#cc409b"></path><path d="M0 255L9.3 253.8C18.7 252.7 37.3 250.3 56.2 248.3C75 246.3 94 244.7 112.8 247.8C131.7 251 150.3 259 169 264.3C187.7 269.7 206.3 272.3 225 268.3C243.7 264.3 262.3 253.7 281.2 247.3C300 241 319 239 337.8 242.7C356.7 246.3 375.3 255.7 394 264.2C412.7 272.7 431.3 280.3 450 284.2C468.7 288 487.3 288 506.2 284.8C525 281.7 544 275.3 562.8 267.3C581.7 259.3 600.3 249.7 619 252.2C637.7 254.7 656.3 269.3 675 272.2C693.7 275 712.3 266 731.2 258.8C750 251.7 769 246.3 787.8 247.2C806.7 248 825.3 255 844 262.3C862.7 269.7 881.3 277.3 890.7 281.2L900 285L900 321L890.7 321C881.3 321 862.7 321 844 321C825.3 321 806.7 321 787.8 321C769 321 750 321 731.2 321C712.3 321 693.7 321 675 321C656.3 321 637.7 321 619 321C600.3 321 581.7 321 562.8 321C544 321 525 321 506.2 321C487.3 321 468.7 321 450 321C431.3 321 412.7 321 394 321C375.3 321 356.7 321 337.8 321C319 321 300 321 281.2 321C262.3 321 243.7 321 225 321C206.3 321 187.7 321 169 321C150.3 321 131.7 321 112.8 321C94 321 75 321 56.2 321C37.3 321 18.7 321 9.3 321L0 321Z" fill="#b25ab9"></path><path d="M0 268L9.3 272.2C18.7 276.3 37.3 284.7 56.2 287C75 289.3 94 285.7 112.8 283.5C131.7 281.3 150.3 280.7 169 278.3C187.7 276 206.3 272 225 273.5C243.7 275 262.3 282 281.2 280.3C300 278.7 319 268.3 337.8 268C356.7 267.7 375.3 277.3 394 280.7C412.7 284 431.3 281 450 280.7C468.7 280.3 487.3 282.7 506.2 285.2C525 287.7 544 290.3 562.8 291C581.7 291.7 600.3 290.3 619 283.5C637.7 276.7 656.3 264.3 675 263C693.7 261.7 712.3 271.3 731.2 270.8C750 270.3 769 259.7 787.8 255.5C806.7 251.3 825.3 253.7 844 260C862.7 266.3 881.3 276.7 890.7 281.8L900 287L900 321L890.7 321C881.3 321 862.7 321 844 321C825.3 321 806.7 321 787.8 321C769 321 750 321 731.2 321C712.3 321 693.7 321 675 321C656.3 321 637.7 321 619 321C600.3 321 581.7 321 562.8 321C544 321 525 321 506.2 321C487.3 321 468.7 321 450 321C431.3 321 412.7 321 394 321C375.3 321 356.7 321 337.8 321C319 321 300 321 281.2 321C262.3 321 243.7 321 225 321C206.3 321 187.7 321 169 321C150.3 321 131.7 321 112.8 321C94 321 75 321 56.2 321C37.3 321 18.7 321 9.3 321L0 321Z" fill="#916fcc"></path><path d="M0 277L9.3 279.2C18.7 281.3 37.3 285.7 56.2 284C75 282.3 94 274.7 112.8 271C131.7 267.3 150.3 267.7 169 271.3C187.7 275 206.3 282 225 283.3C243.7 284.7 262.3 280.3 281.2 276.3C300 272.3 319 268.7 337.8 271C356.7 273.3 375.3 281.7 394 281.7C412.7 281.7 431.3 273.3 450 272.2C468.7 271 487.3 277 506.2 280.7C525 284.3 544 285.7 562.8 285.7C581.7 285.7 600.3 284.3 619 285C637.7 285.7 656.3 288.3 675 288.5C693.7 288.7 712.3 286.3 731.2 284.7C750 283 769 282 787.8 281.7C806.7 281.3 825.3 281.7 844 280.8C862.7 280 881.3 278 890.7 277L900 276L900 321L890.7 321C881.3 321 862.7 321 844 321C825.3 321 806.7 321 787.8 321C769 321 750 321 731.2 321C712.3 321 693.7 321 675 321C656.3 321 637.7 321 619 321C600.3 321 581.7 321 562.8 321C544 321 525 321 506.2 321C487.3 321 468.7 321 450 321C431.3 321 412.7 321 394 321C375.3 321 356.7 321 337.8 321C319 321 300 321 281.2 321C262.3 321 243.7 321 225 321C206.3 321 187.7 321 169 321C150.3 321 131.7 321 112.8 321C94 321 75 321 56.2 321C37.3 321 18.7 321 9.3 321L0 321Z" fill="#6c80d5"></path><path d="M0 280L9.3 280C18.7 280 37.3 280 56.2 282.5C75 285 94 290 112.8 294.3C131.7 298.7 150.3 302.3 169 301.7C187.7 301 206.3 296 225 293C243.7 290 262.3 289 281.2 290.3C300 291.7 319 295.3 337.8 296.3C356.7 297.3 375.3 295.7 394 296.8C412.7 298 431.3 302 450 302.2C468.7 302.3 487.3 298.7 506.2 294.5C525 290.3 544 285.7 562.8 283C581.7 280.3 600.3 279.7 619 279.7C637.7 279.7 656.3 280.3 675 281C693.7 281.7 712.3 282.3 731.2 283.3C750 284.3 769 285.7 787.8 285.5C806.7 285.3 825.3 283.7 844 285.8C862.7 288 881.3 294 890.7 297L900 300L900 321L890.7 321C881.3 321 862.7 321 844 321C825.3 321 806.7 321 787.8 321C769 321 750 321 731.2 321C712.3 321 693.7 321 675 321C656.3 321 637.7 321 619 321C600.3 321 581.7 321 562.8 321C544 321 525 321 506.2 321C487.3 321 468.7 321 450 321C431.3 321 412.7 321 394 321C375.3 321 356.7 321 337.8 321C319 321 300 321 281.2 321C262.3 321 243.7 321 225 321C206.3 321 187.7 321 169 321C150.3 321 131.7 321 112.8 321C94 321 75 321 56.2 321C37.3 321 18.7 321 9.3 321L0 321Z" fill="#498dd4"></path><path d="M0 308L9.3 306.3C18.7 304.7 37.3 301.3 56.2 299.3C75 297.3 94 296.7 112.8 296.7C131.7 296.7 150.3 297.3 169 298.8C187.7 300.3 206.3 302.7 225 302.3C243.7 302 262.3 299 281.2 298C300 297 319 298 337.8 299.7C356.7 301.3 375.3 303.7 394 302.7C412.7 301.7 431.3 297.3 450 296.7C468.7 296 487.3 299 506.2 300C525 301 544 300 562.8 301.2C581.7 302.3 600.3 305.7 619 305C637.7 304.3 656.3 299.7 675 297.8C693.7 296 712.3 297 731.2 296.8C750 296.7 769 295.3 787.8 296.5C806.7 297.7 825.3 301.3 844 302.3C862.7 303.3 881.3 301.7 890.7 300.8L900 300L900 321L890.7 321C881.3 321 862.7 321 844 321C825.3 321 806.7 321 787.8 321C769 321 750 321 731.2 321C712.3 321 693.7 321 675 321C656.3 321 637.7 321 619 321C600.3 321 581.7 321 562.8 321C544 321 525 321 506.2 321C487.3 321 468.7 321 450 321C431.3 321 412.7 321 394 321C375.3 321 356.7 321 337.8 321C319 321 300 321 281.2 321C262.3 321 243.7 321 225 321C206.3 321 187.7 321 169 321C150.3 321 131.7 321 112.8 321C94 321 75 321 56.2 321C37.3 321 18.7 321 9.3 321L0 321Z" fill="#3396cc"></path></svg>