<svg id="visual" viewBox="0 0 960 320" width="960" height="320" xmlns="http://www.w3.org/2000/svg" xmlns:xlink="http://www.w3.org/1999/xlink" version="1.1"><g><g transform="translate(672 121)"><path d="M0 -60.4L47.2 -37.7L58.9 13.4L26.2 54.4L-26.2 54.4L-58.9 13.4L-47.2 -37.7Z" fill="#d51a1d"></path></g><g transform="translate(844 254)"><path d="M0 -50L39.1 -31.2L48.7 11.1L21.7 45L-21.7 45L-48.7 11.1L-39.1 -31.2Z" fill="#d51a1d"></path></g><g transform="translate(834 109)"><path d="M0 -59L46.1 -36.8L57.5 13.1L25.6 53.2L-25.6 53.2L-57.5 13.1L-46.1 -36.8Z" fill="#d51a1d"></path></g><g transform="translate(91 247)"><path d="M0 -31L24.2 -19.3L30.2 6.9L13.5 27.9L-13.5 27.9L-30.2 6.9L-24.2 -19.3Z" fill="#d51a1d"></path></g><g transform="translate(302 193)"><path d="M0 -42L32.8 -26.2L40.9 9.3L18.2 37.8L-18.2 37.8L-40.9 9.3L-32.8 -26.2Z" fill="#d51a1d"></path></g></g></svg>