<svg id="visual" viewBox="0 0 960 320" xmlns="http://www.w3.org/2000/svg" xmlns:xlink="http://www.w3.org/1999/xlink" version="1.1"><g><g transform="translate(172 238)"><path d="M0 -60.4L47.2 -37.7L58.9 13.4L26.2 54.4L-26.2 54.4L-58.9 13.4L-47.2 -37.7Z" fill="#3396cc"></path></g><g transform="translate(286 184)"><path d="M0 -50L39.1 -31.2L48.7 11.1L21.7 45L-21.7 45L-48.7 11.1L-39.1 -31.2Z" fill="#3396cc"></path></g><g transform="translate(574 187)"><path d="M0 -37L28.9 -23.1L36.1 8.2L16.1 33.3L-16.1 33.3L-36.1 8.2L-28.9 -23.1Z" fill="#3396cc"></path></g><g transform="translate(647 73)"><path d="M0 -51L39.9 -31.8L49.7 11.3L22.1 45.9L-22.1 45.9L-49.7 11.3L-39.9 -31.8Z" fill="#3396cc"></path></g><g transform="translate(840 164)"><path d="M0 -39L30.5 -24.3L38 8.7L16.9 35.1L-16.9 35.1L-38 8.7L-30.5 -24.3Z" fill="#3396cc"></path></g><g transform="translate(515 78)"><path d="M0 -35L27.4 -21.8L34.1 7.8L15.2 31.5L-15.2 31.5L-34.1 7.8L-27.4 -21.8Z" fill="#3396cc"></path></g><g transform="translate(421 221)"><path d="M0 -37L28.9 -23.1L36.1 8.2L16.1 33.3L-16.1 33.3L-36.1 8.2L-28.9 -23.1Z" fill="#3396cc"></path></g></g></svg>