<svg id="visual" viewBox="0 0 960 320" width="960" height="320" xmlns="http://www.w3.org/2000/svg" xmlns:xlink="http://www.w3.org/1999/xlink" version="1.1"><g><g transform="translate(841 215)"><path d="M0 -60.4L47.2 -37.7L58.9 13.4L26.2 54.4L-26.2 54.4L-58.9 13.4L-47.2 -37.7Z" fill="none" stroke="#3396cc" stroke-width="2"></path></g><g transform="translate(591 65)"><path d="M0 -32L25 -20L31.2 7.1L13.9 28.8L-13.9 28.8L-31.2 7.1L-25 -20Z" fill="none" stroke="#3396cc" stroke-width="2"></path></g><g transform="translate(166 249)"><path d="M0 -54L42.2 -33.7L52.6 12L23.4 48.7L-23.4 48.7L-52.6 12L-42.2 -33.7Z" fill="none" stroke="#3396cc" stroke-width="2"></path></g><g transform="translate(365 140)"><path d="M0 -56L43.8 -34.9L54.6 12.5L24.3 50.5L-24.3 50.5L-54.6 12.5L-43.8 -34.9Z" fill="none" stroke="#3396cc" stroke-width="2"></path></g></g></svg>