<svg id="visual" viewBox="0 0 960 320" width="960" height="320" xmlns="http://www.w3.org/2000/svg" xmlns:xlink="http://www.w3.org/1999/xlink" version="1.1"><g><g transform="translate(648 201)"><path d="M0 -60.4L47.2 -37.7L58.9 13.4L26.2 54.4L-26.2 54.4L-58.9 13.4L-47.2 -37.7Z" fill="none" stroke="#d51a1d" stroke-width="2"></path></g><g transform="translate(241 169)"><path d="M0 -40L31.3 -24.9L39 8.9L17.4 36L-17.4 36L-39 8.9L-31.3 -24.9Z" fill="none" stroke="#d51a1d" stroke-width="2"></path></g><g transform="translate(848 106)"><path d="M0 -55L43 -34.3L53.6 12.2L23.9 49.6L-23.9 49.6L-53.6 12.2L-43 -34.3Z" fill="none" stroke="#d51a1d" stroke-width="2"></path></g><g transform="translate(598 69)"><path d="M0 -45L35.2 -28.1L43.9 10L19.5 40.5L-19.5 40.5L-43.9 10L-35.2 -28.1Z" fill="none" stroke="#d51a1d" stroke-width="2"></path></g><g transform="translate(396 197)"><path d="M0 -38L29.7 -23.7L37 8.5L16.5 34.2L-16.5 34.2L-37 8.5L-29.7 -23.7Z" fill="none" stroke="#d51a1d" stroke-width="2"></path></g><g transform="translate(126 226)"><path d="M0 -30L23.5 -18.7L29.2 6.7L13 27L-13 27L-29.2 6.7L-23.5 -18.7Z" fill="none" stroke="#d51a1d" stroke-width="2"></path></g><g transform="translate(349 75)"><path d="M0 -57L44.6 -35.5L55.6 12.7L24.7 51.4L-24.7 51.4L-55.6 12.7L-44.6 -35.5Z" fill="none" stroke="#d51a1d" stroke-width="2"></path></g></g></svg>